ISO-10303-21;
HEADER;
FILE_DESCRIPTION (( 'STEP AP214' ),
    '1' );
FILE_NAME ('Cooling Material Feed.STEP',
    '2026-09-06T14:56:22',
    ( '' ),
    ( '' ),
    'SwSTEP 2.0',
    'SolidWorks 2024',
    '' );
FILE_SCHEMA (( 'AUTOMOTIVE_DESIGN' ));
ENDSEC;

DATA;
#1 = IDENTIFICATION_ROLE ( 'external document id and location', $) ;
#2 = APPLIED_EXTERNAL_IDENTIFICATION_ASSIGNMENT ( 'Cooling housing v3.2.STEP' , #11, #80,( #63) ) ;
#3 =( NAMED_UNIT ( * ) SI_UNIT ( $, .STERADIAN. ) SOLID_ANGLE_UNIT ( ) );
#4 =( LENGTH_UNIT ( ) NAMED_UNIT ( * ) SI_UNIT ( .MILLI., .METRE. ) );
#5 = PRODUCT_DEFINITION_CONTEXT ( 'detailed design', #118, 'design' ) ;
#6 = UNCERTAINTY_MEASURE_WITH_UNIT (LENGTH_MEASURE( 1.000000000000000082E-05 ), #92, 'distance_accuracy_value', 'NONE');
#7 = DIRECTION ( 'NONE',  ( 0.000000000000000000, 0.000000000000000000, -1.000000000000000000 ) ) ;
#8 = DIRECTION ( 'NONE',  ( 0.000000000000000000, 0.000000000000000000, 1.000000000000000000 ) ) ;
#9 = APPLICATION_PROTOCOL_DEFINITION ( 'draft international standard', 'automotive_design', 1998, #26 ) ;
#10 = AXIS2_PLACEMENT_3D ( 'NONE', #124, #73, #28 ) ;
#11 = IDENTIFICATION_ROLE ( 'external document id and location', $) ;
#12 =( GEOMETRIC_REPRESENTATION_CONTEXT ( 3 ) GLOBAL_UNCERTAINTY_ASSIGNED_CONTEXT ( ( #19 ) ) GLOBAL_UNIT_ASSIGNED_CONTEXT ( ( #117, #153, #163 ) ) REPRESENTATION_CONTEXT ( 'NONE', 'WORKASPACE' ) );
#13 = APPLICATION_CONTEXT ( 'automotive_design' ) ;
#14 = PRODUCT_DEFINITION_SHAPE ( 'NONE', 'NONE',  #171 ) ;
#15 = PRODUCT_DEFINITION_CONTEXT ( 'detailed design', #26, 'design' ) ;
#16 = AXIS2_PLACEMENT_3D ( 'NONE', #156, #33, #8 ) ;
#17 = CARTESIAN_POINT ( 'NONE',  ( 0.000000000000000000, 0.000000000000000000, 0.000000000000000000 ) ) ;
#18 = DIRECTION ( 'NONE',  ( 0.9925216551483780902, -0.1220686858351640036, 0.000000000000000000 ) ) ;
#19 = UNCERTAINTY_MEASURE_WITH_UNIT (LENGTH_MEASURE( 1.000000000000000082E-05 ), #117, 'distance_accuracy_value', 'NONE');
#20 = ROLE_ASSOCIATION ( #65, #146 ) ;
#21 = APPLICATION_CONTEXT ( 'automotive_design' ) ;
#22 = PRODUCT_CONTEXT ( 'NONE', #133, 'mechanical' ) ;
#23 = PROPERTY_DEFINITION ('external definition','', #63 ) ;
#24 = PRODUCT_DEFINITION_SHAPE ( 'NONE', 'NONE',  #170 ) ;
#25 = APPLICATION_CONTEXT ( 'automotive_design' ) ;
#26 = APPLICATION_CONTEXT ( 'automotive_design' ) ;
#27 = PRODUCT_DEFINITION ( 'General', '', #162, #15 ) ;
#28 = DIRECTION ( 'NONE',  ( 1.000000000000000000, 0.000000000000000000, 0.000000000000000000 ) ) ;
#29 = PRODUCT_DEFINITION_FORMATION_WITH_SPECIFIED_SOURCE ( 'Symmetric', '', #157, .NOT_KNOWN. ) ;
#30 = CONTEXT_DEPENDENT_SHAPE_REPRESENTATION ( #74, #14 ) ;
#31 = APPLIED_EXTERNAL_IDENTIFICATION_ASSIGNMENT ( 'Side Screw Inserts.STEP' , #150, #87,( #94) ) ;
#32 = APPLICATION_PROTOCOL_DEFINITION ( 'draft international standard', 'automotive_design', 1998, #118 ) ;
#33 = DIRECTION ( 'NONE',  ( -0.9164150058131627086, 0.4002293556455608914, 0.000000000000000000 ) ) ;
#34 = APPLICATION_CONTEXT ( 'automotive_design' ) ;
#35 = PRODUCT_DEFINITION_SHAPE ( 'NONE', 'NONE',  #135 ) ;
#36 =( GEOMETRIC_REPRESENTATION_CONTEXT ( 3 ) GLOBAL_UNCERTAINTY_ASSIGNED_CONTEXT ( ( #120 ) ) GLOBAL_UNIT_ASSIGNED_CONTEXT ( ( #106, #129, #49 ) ) REPRESENTATION_CONTEXT ( 'NONE', 'WORKASPACE' ) );
#37 = DOCUMENT_TYPE ( 'geometry' ) ;
#38 = OBJECT_ROLE ('mandatory',$ ) ;
#39 = CARTESIAN_POINT ( 'NONE',  ( 0.000000000000000000, 0.000000000000000000, 0.000000000000000000 ) ) ;
#40 = EXTERNAL_SOURCE (IDENTIFIER('') ) ;
#41 = PRODUCT_DEFINITION ( 'General', '', #136, #5 ) ;
#42 = APPLIED_DOCUMENT_REFERENCE ( #165,'',( #41) ) ;
#43 = PRODUCT_DEFINITION_CONTEXT ( 'detailed design', #25, 'design' ) ;
#44 = ROLE_ASSOCIATION ( #141, #42 ) ;
#45 = AXIS2_PLACEMENT_3D ( 'NONE', #109, #18, #7 ) ;
#46 = DIRECTION ( 'NONE',  ( 0.000000000000000000, -1.000000000000000000, 0.000000000000000000 ) ) ;
#47 = DIRECTION ( 'NONE',  ( 0.9238795325112871826, 0.000000000000000000, 0.3826834323650890601 ) ) ;
#48 = DOCUMENT_TYPE ( 'geometry' ) ;
#49 =( NAMED_UNIT ( * ) SI_UNIT ( $, .STERADIAN. ) SOLID_ANGLE_UNIT ( ) );
#50 = PRODUCT_DEFINITION_SHAPE ( 'NONE', 'NONE',  #27 ) ;
#51 =( REPRESENTATION_RELATIONSHIP ('NONE','NONE', #60, #115 ) REPRESENTATION_RELATIONSHIP_WITH_TRANSFORMATION ( #95 )SHAPE_REPRESENTATION_RELATIONSHIP( ) );
#52 = PRODUCT_RELATED_PRODUCT_CATEGORY ( 'part', '', ( #108 ) ) ;
#53 = PRODUCT_DEFINITION_FORMATION_WITH_SPECIFIED_SOURCE ( 'Symmetric', '', #64, .NOT_KNOWN. ) ;
#54 = PRODUCT_DEFINITION_CONTEXT ( 'detailed design', #34, 'design' ) ;
#55 = APPLIED_EXTERNAL_IDENTIFICATION_ASSIGNMENT ( 'Side Screw Inserts.STEP' , #139, #40,( #83) ) ;
#56 = PRODUCT_RELATED_PRODUCT_CATEGORY ( 'part', '', ( #157 ) ) ;
#57 = APPLICATION_CONTEXT ( 'automotive_design' ) ;
#58 = PROPERTY_DEFINITION_REPRESENTATION ( #23, #115 ) ;
#59 = CONTEXT_DEPENDENT_SHAPE_REPRESENTATION ( #51, #81 ) ;
#60 = SHAPE_REPRESENTATION ( 'Cooling Material Feed', ( #114, #82, #71, #45, #16 ), #36 ) ;
#61 = APPLIED_EXTERNAL_IDENTIFICATION_ASSIGNMENT ( 'Cooling_housingcover_v3.1_1.STEP' , #1, #91,( #165) ) ;
#62 = PROPERTY_DEFINITION_REPRESENTATION ( #148, #115 ) ;
#63 = DOCUMENT_FILE ( 'Cooling housing v3.2.STEP' , '', '', #37, '' ,$ ) ;
#64 = PRODUCT ( 'Cooling housing v3.2', 'Cooling housing v3.2', '', ( #22 ) ) ;
#65 = OBJECT_ROLE ('mandatory',$ ) ;
#66 = PROPERTY_DEFINITION ('external definition','', #165 ) ;
#67 = PROPERTY_DEFINITION_REPRESENTATION ( #168, #90 ) ;
#68 = APPLIED_DOCUMENT_REFERENCE ( #83,'',( #27) ) ;
#69 =( REPRESENTATION_RELATIONSHIP ('NONE','NONE', #60, #90 ) REPRESENTATION_RELATIONSHIP_WITH_TRANSFORMATION ( #98 )SHAPE_REPRESENTATION_RELATIONSHIP( ) );
#70 = PRODUCT_RELATED_PRODUCT_CATEGORY ( 'part', '', ( #110 ) ) ;
#71 = AXIS2_PLACEMENT_3D ( 'NONE', #123, #77, #46 ) ;
#72 = APPLICATION_PROTOCOL_DEFINITION ( 'draft international standard', 'automotive_design', 1998, #57 ) ;
#73 = DIRECTION ( 'NONE',  ( 0.000000000000000000, 0.000000000000000000, 1.000000000000000000 ) ) ;
#74 =( REPRESENTATION_RELATIONSHIP ('NONE','NONE', #60, #90 ) REPRESENTATION_RELATIONSHIP_WITH_TRANSFORMATION ( #105 )SHAPE_REPRESENTATION_RELATIONSHIP( ) );
#75 = SHAPE_REPRESENTATION ( 'Cooling_housingcover_v3.1_1', ( #10 ), #125 ) ;
#76 = PRODUCT_CONTEXT ( 'NONE', #21, 'mechanical' ) ;
#77 = DIRECTION ( 'NONE',  ( 1.000000000000000000, 0.000000000000000000, 0.000000000000000000 ) ) ;
#78 = DIRECTION ( 'NONE',  ( 1.000000000000000000, 0.000000000000000000, 0.000000000000000000 ) ) ;
#79 = APPLICATION_PROTOCOL_DEFINITION ( 'draft international standard', 'automotive_design', 1998, #133 ) ;
#80 = EXTERNAL_SOURCE (IDENTIFIER('') ) ;
#81 = PRODUCT_DEFINITION_SHAPE ( 'NONE', 'NONE',  #169 ) ;
#82 = AXIS2_PLACEMENT_3D ( 'NONE', #134, #143, #47 ) ;
#83 = DOCUMENT_FILE ( 'Side Screw Inserts.STEP' , '', '', #147, '' ,$ ) ;
#84 = PROPERTY_DEFINITION_REPRESENTATION ( #158, #90 ) ;
#85 = PROPERTY_DEFINITION ('document property','', #83 ) ;
#86 = PRODUCT_RELATED_PRODUCT_CATEGORY ( 'part', '', ( #64 ) ) ;
#87 = EXTERNAL_SOURCE (IDENTIFIER('') ) ;
#88 = DIRECTION ( 'NONE',  ( 1.000000000000000000, 0.000000000000000000, 0.000000000000000000 ) ) ;
#89 =( NAMED_UNIT ( * ) SI_UNIT ( $, .STERADIAN. ) SOLID_ANGLE_UNIT ( ) );
#90 = SHAPE_REPRESENTATION ( 'Side Screw Inserts', ( #138 ), #12 ) ;
#91 = EXTERNAL_SOURCE (IDENTIFIER('') ) ;
#92 =( LENGTH_UNIT ( ) NAMED_UNIT ( * ) SI_UNIT ( .MILLI., .METRE. ) );
#93 = UNCERTAINTY_MEASURE_WITH_UNIT (LENGTH_MEASURE( 1.000000000000000082E-05 ), #4, 'distance_accuracy_value', 'NONE');
#94 = DOCUMENT_FILE ( 'Side Screw Inserts.STEP' , '', '', #48, '' ,$ ) ;
#95 = ITEM_DEFINED_TRANSFORMATION ( 'NONE', 'NONE', #82,  #160 ) ;
#96 = SHAPE_DEFINITION_REPRESENTATION ( #97, #75 ) ;
#97 = PRODUCT_DEFINITION_SHAPE ( 'NONE', 'NONE',  #41 ) ;
#98 = ITEM_DEFINED_TRANSFORMATION ( 'NONE', 'NONE', #16,  #138 ) ;
#99 = PRODUCT_DEFINITION_SHAPE ( 'NONE', 'NONE',  #172 ) ;
#100 = ROLE_ASSOCIATION ( #152, #145 ) ;
#101 = CONTEXT_DEPENDENT_SHAPE_REPRESENTATION ( #69, #99 ) ;
#102 = APPLICATION_PROTOCOL_DEFINITION ( 'draft international standard', 'automotive_design', 1998, #25 ) ;
#103 = PROPERTY_DEFINITION_REPRESENTATION ( #66, #75 ) ;
#104 = PROPERTY_DEFINITION_REPRESENTATION ( #85, #90 ) ;
#105 = ITEM_DEFINED_TRANSFORMATION ( 'NONE', 'NONE', #45,  #138 ) ;
#106 =( LENGTH_UNIT ( ) NAMED_UNIT ( * ) SI_UNIT ( .MILLI., .METRE. ) );
#107 = PROPERTY_DEFINITION_REPRESENTATION ( #149, #75 ) ;
#108 = PRODUCT ( 'Cooling_housingcover_v3.1_1', 'Cooling_housingcover_v3.1_1', '', ( #76 ) ) ;
#109 = CARTESIAN_POINT ( 'NONE',  ( 35.27977342031771002, 60.64694742889431467, -10.66320476682262708 ) ) ;
#110 = PRODUCT ( 'Side Screw Inserts', 'Side Screw Inserts', '', ( #131 ) ) ;
#111 = ROLE_ASSOCIATION ( #38, #68 ) ;
#112 = PROPERTY_DEFINITION ('external definition','', #83 ) ;
#113 =( NAMED_UNIT ( * ) PLANE_ANGLE_UNIT ( ) SI_UNIT ( $, .RADIAN. ) );
#114 = AXIS2_PLACEMENT_3D ( 'NONE', #140, #155, #78 ) ;
#115 = SHAPE_REPRESENTATION ( 'Cooling housing v3.2', ( #160 ), #154 ) ;
#116 = PRODUCT_DEFINITION ( 'General', '', #29, #43 ) ;
#117 =( LENGTH_UNIT ( ) NAMED_UNIT ( * ) SI_UNIT ( .MILLI., .METRE. ) );
#118 = APPLICATION_CONTEXT ( 'automotive_design' ) ;
#119 = CONTEXT_DEPENDENT_SHAPE_REPRESENTATION ( #164, #24 ) ;
#120 = UNCERTAINTY_MEASURE_WITH_UNIT (LENGTH_MEASURE( 1.000000000000000082E-05 ), #106, 'distance_accuracy_value', 'NONE');
#121 = ITEM_DEFINED_TRANSFORMATION ( 'NONE', 'NONE', #71,  #10 ) ;
#122 = SHAPE_DEFINITION_REPRESENTATION ( #132, #60 ) ;
#123 = CARTESIAN_POINT ( 'NONE',  ( 35.27977342031771002, 71.64694742889426493, 14.41221811123306651 ) ) ;
#124 = CARTESIAN_POINT ( 'NONE',  ( 0.000000000000000000, 0.000000000000000000, 0.000000000000000000 ) ) ;
#125 =( GEOMETRIC_REPRESENTATION_CONTEXT ( 3 ) GLOBAL_UNCERTAINTY_ASSIGNED_CONTEXT ( ( #6 ) ) GLOBAL_UNIT_ASSIGNED_CONTEXT ( ( #92, #113, #3 ) ) REPRESENTATION_CONTEXT ( 'NONE', 'WORKASPACE' ) );
#126 = PRODUCT_CONTEXT ( 'NONE', #57, 'mechanical' ) ;
#127 = DIRECTION ( 'NONE',  ( 0.000000000000000000, 0.000000000000000000, 1.000000000000000000 ) ) ;
#128 = SHAPE_DEFINITION_REPRESENTATION ( #35, #115 ) ;
#129 =( NAMED_UNIT ( * ) PLANE_ANGLE_UNIT ( ) SI_UNIT ( $, .RADIAN. ) );
#130 = APPLICATION_PROTOCOL_DEFINITION ( 'draft international standard', 'automotive_design', 1998, #13 ) ;
#131 = PRODUCT_CONTEXT ( 'NONE', #13, 'mechanical' ) ;
#132 = PRODUCT_DEFINITION_SHAPE ( 'NONE', 'NONE',  #116 ) ;
#133 = APPLICATION_CONTEXT ( 'automotive_design' ) ;
#134 = CARTESIAN_POINT ( 'NONE',  ( 35.27977342031771002, 81.49114753380465004, 14.41221811123318197 ) ) ;
#135 = PRODUCT_DEFINITION ( 'General', '', #53, #54 ) ;
#136 = PRODUCT_DEFINITION_FORMATION_WITH_SPECIFIED_SOURCE ( 'Symmetric', '', #108, .NOT_KNOWN. ) ;
#137 =( NAMED_UNIT ( * ) PLANE_ANGLE_UNIT ( ) SI_UNIT ( $, .RADIAN. ) );
#138 = AXIS2_PLACEMENT_3D ( 'NONE', #39, #142, #151 ) ;
#139 = IDENTIFICATION_ROLE ( 'external document id and location', $) ;
#140 = CARTESIAN_POINT ( 'NONE',  ( 0.000000000000000000, 0.000000000000000000, 0.000000000000000000 ) ) ;
#141 = OBJECT_ROLE ('mandatory',$ ) ;
#142 = DIRECTION ( 'NONE',  ( 0.000000000000000000, 0.000000000000000000, 1.000000000000000000 ) ) ;
#143 = DIRECTION ( 'NONE',  ( -0.3826834323650890601, 0.000000000000000000, 0.9238795325112871826 ) ) ;
#144 = APPLICATION_PROTOCOL_DEFINITION ( 'draft international standard', 'automotive_design', 1998, #21 ) ;
#145 = APPLIED_DOCUMENT_REFERENCE ( #94,'',( #27) ) ;
#146 = APPLIED_DOCUMENT_REFERENCE ( #63,'',( #135) ) ;
#147 = DOCUMENT_TYPE ( 'geometry' ) ;
#148 = PROPERTY_DEFINITION ('document property','', #63 ) ;
#149 = PROPERTY_DEFINITION ('document property','', #165 ) ;
#150 = IDENTIFICATION_ROLE ( 'external document id and location', $) ;
#151 = DIRECTION ( 'NONE',  ( 1.000000000000000000, 0.000000000000000000, 0.000000000000000000 ) ) ;
#152 = OBJECT_ROLE ('mandatory',$ ) ;
#153 =( NAMED_UNIT ( * ) PLANE_ANGLE_UNIT ( ) SI_UNIT ( $, .RADIAN. ) );
#154 =( GEOMETRIC_REPRESENTATION_CONTEXT ( 3 ) GLOBAL_UNCERTAINTY_ASSIGNED_CONTEXT ( ( #93 ) ) GLOBAL_UNIT_ASSIGNED_CONTEXT ( ( #4, #137, #89 ) ) REPRESENTATION_CONTEXT ( 'NONE', 'WORKASPACE' ) );
#155 = DIRECTION ( 'NONE',  ( 0.000000000000000000, 0.000000000000000000, 1.000000000000000000 ) ) ;
#156 = CARTESIAN_POINT ( 'NONE',  ( 35.27977342031771002, 60.64694742889427914, 48.04134985343126374 ) ) ;
#157 = PRODUCT ( 'Cooling Material Feed', 'Cooling Material Feed', '', ( #126 ) ) ;
#158 = PROPERTY_DEFINITION ('external definition','', #94 ) ;
#159 = DOCUMENT_TYPE ( 'geometry' ) ;
#160 = AXIS2_PLACEMENT_3D ( 'NONE', #17, #127, #88 ) ;
#161 = PROPERTY_DEFINITION_REPRESENTATION ( #112, #90 ) ;
#162 = PRODUCT_DEFINITION_FORMATION_WITH_SPECIFIED_SOURCE ( 'Symmetric', '', #110, .NOT_KNOWN. ) ;
#163 =( NAMED_UNIT ( * ) SI_UNIT ( $, .STERADIAN. ) SOLID_ANGLE_UNIT ( ) );
#164 =( REPRESENTATION_RELATIONSHIP ('NONE','NONE', #60, #75 ) REPRESENTATION_RELATIONSHIP_WITH_TRANSFORMATION ( #121 )SHAPE_REPRESENTATION_RELATIONSHIP( ) );
#165 = DOCUMENT_FILE ( 'Cooling_housingcover_v3.1_1.STEP' , '', '', #159, '' ,$ ) ;
#166 = SHAPE_DEFINITION_REPRESENTATION ( #50, #90 ) ;
#167 = APPLICATION_PROTOCOL_DEFINITION ( 'draft international standard', 'automotive_design', 1998, #34 ) ;
#168 = PROPERTY_DEFINITION ('document property','', #94 ) ;
#169 = NEXT_ASSEMBLY_USAGE_OCCURRENCE ( 'NAUO1', ' ', ' ', #116, #135, $ ) ;
#170 = NEXT_ASSEMBLY_USAGE_OCCURRENCE ( 'NAUO2', ' ', ' ', #116, #41, $ ) ;
#171 = NEXT_ASSEMBLY_USAGE_OCCURRENCE ( 'NAUO3', ' ', ' ', #116, #27, $ ) ;
#172 = NEXT_ASSEMBLY_USAGE_OCCURRENCE ( 'NAUO4', ' ', ' ', #116, #27, $ ) ;
ENDSEC;
END-ISO-10303-21;
