ISO-10303-21;
HEADER;
FILE_DESCRIPTION (( 'STEP AP214' ),
    '1' );
FILE_NAME ('Cooling_housingcover_v3.1_1.STEP',
    '2026-09-06T14:56:22',
    ( '' ),
    ( '' ),
    'SwSTEP 2.0',
    'SolidWorks 2024',
    '' );
FILE_SCHEMA (( 'AUTOMOTIVE_DESIGN' ));
ENDSEC;

DATA;
#1 = CARTESIAN_POINT ( 'NONE',  ( 14.29010685144483617, 8.205223680060868219, -0.8861189154399020662 ) ) ;
#2 = ORIENTED_EDGE ( 'NONE', *, *, #201, .T. ) ;
#3 = CARTESIAN_POINT ( 'NONE',  ( 7.778264345498745236, -8.177766536631212446, -1.108765859787175234 ) ) ;
#4 = CARTESIAN_POINT ( 'NONE',  ( -2.733361688809836210, -12.25000000000000000, -0.7368029940157969637 ) ) ;
#5 = AXIS2_PLACEMENT_3D ( 'NONE', #596, #417, #369 ) ;
#6 = CARTESIAN_POINT ( 'NONE',  ( 76.50000000000001421, 0.000000000000000000, 0.000000000000000000 ) ) ;
#7 = DIRECTION ( 'NONE',  ( 2.891205793294678326E-16, -1.000000000000000000, 0.000000000000000000 ) ) ;
#8 = AXIS2_PLACEMENT_3D ( 'NONE', #241, #107, #7 ) ;
#9 = EDGE_CURVE ( 'NONE', #229, #229, #135, .T. ) ;
#10 = DIRECTION ( 'NONE',  ( -1.000000000000000000, 0.000000000000000000, 0.000000000000000000 ) ) ;
#11 = LINE ( 'NONE', #146, #278 ) ;
#12 = AXIS2_PLACEMENT_3D ( 'NONE', #64, #122, #263 ) ;
#13 = CARTESIAN_POINT ( 'NONE',  ( 7.774918925885847543, -8.179077275762415056, 1.099665370656913943 ) ) ;
#14 = CARTESIAN_POINT ( 'NONE',  ( 11.00000000000000000, -12.25000000000000000, 0.000000000000000000 ) ) ;
#15 = CARTESIAN_POINT ( 'NONE',  ( 9.890662199622147099, -7.595580210717193914, 3.221516666357241654 ) ) ;
#16 = CARTESIAN_POINT ( 'NONE',  ( 3.000000000000000000, 0.000000000000000000, 0.000000000000000000 ) ) ;
#17 = UNCERTAINTY_MEASURE_WITH_UNIT (LENGTH_MEASURE( 1.000000000000000082E-05 ), #388, 'distance_accuracy_value', 'NONE');
#18 = CARTESIAN_POINT ( 'NONE',  ( 11.22728523175944026, -7.516814485011596325, -3.400000000373042397 ) ) ;
#19 = AXIS2_PLACEMENT_3D ( 'NONE', #14, #342, #198 ) ;
#20 = CARTESIAN_POINT ( 'NONE',  ( 19.61767671716591721, 12.24999999999999822, -1.840428093007547394 ) ) ;
#21 = VERTEX_POINT ( 'NONE', #142 ) ;
#22 = LINE ( 'NONE', #26, #376 ) ;
#23 = CYLINDRICAL_SURFACE ( 'NONE', #469, 13.00000000000000178 ) ;
#24 = EDGE_LOOP ( 'NONE', ( #594 ) ) ;
#25 = ADVANCED_FACE ( 'NONE', ( #510, #86 ), #428, .T. ) ;
#26 = CARTESIAN_POINT ( 'NONE',  ( 8.500000000000000000, -12.25000000000000000, 4.351723796000000810 ) ) ;
#27 = DIRECTION ( 'NONE',  ( -1.000000000000000000, 0.000000000000000000, 0.000000000000000000 ) ) ;
#28 = ORIENTED_EDGE ( 'NONE', *, *, #295, .F. ) ;
#29 = CARTESIAN_POINT ( 'NONE',  ( 77.00000000000000000, 0.000000000000000000, 0.000000000000000000 ) ) ;
#30 = CARTESIAN_POINT ( 'NONE',  ( 19.42479675602283606, 12.25000000000000533, -2.929883848721586137 ) ) ;
#31 = EDGE_LOOP ( 'NONE', ( #67 ) ) ;
#32 = AXIS2_PLACEMENT_3D ( 'NONE', #6, #194, #382 ) ;
#33 = DIRECTION ( 'NONE',  ( 1.000000000000000000, 0.000000000000000000, 0.000000000000000000 ) ) ;
#34 = CARTESIAN_POINT ( 'NONE',  ( 10.10279654239744218, 7.566959448669124733, 3.287253128680313274 ) ) ;
#35 = ADVANCED_FACE ( 'NONE', ( #605, #328 ), #179, .T. ) ;
#36 = ORIENTED_EDGE ( 'NONE', *, *, #103, .F. ) ;
#37 = AXIS2_PLACEMENT_3D ( 'NONE', #29, #589, #449 ) ;
#38 = PRODUCT_CONTEXT ( 'NONE', #94, 'mechanical' ) ;
#39 = AXIS2_PLACEMENT_3D ( 'NONE', #434, #62, #297 ) ;
#40 = CARTESIAN_POINT ( 'NONE',  ( 13.94733972911665987, 8.073173150594104897, -1.709317096399394664 ) ) ;
#41 = DIRECTION ( 'NONE',  ( 0.000000000000000000, 0.000000000000000000, 1.000000000000000000 ) ) ;
#42 = CARTESIAN_POINT ( 'NONE',  ( 19.00000000006393819, 12.25000000000000000, 4.351723796191152793 ) ) ;
#43 = CARTESIAN_POINT ( 'NONE',  ( 7.947531863213253445, 8.112565492755326346, 1.514216013625056423 ) ) ;
#44 = CARTESIAN_POINT ( 'NONE',  ( 19.00000000019430502, 12.24999999998762945, -4.351723795836658581 ) ) ;
#45 = CARTESIAN_POINT ( 'NONE',  ( 8.439647564887254205, 7.939522356502051181, 2.247863395204626968 ) ) ;
#46 = ORIENTED_EDGE ( 'NONE', *, *, #572, .T. ) ;
#47 = CARTESIAN_POINT ( 'NONE',  ( 8.053579060910859511, 8.072820758186832535, -1.711143619177299957 ) ) ;
#48 = ORIENTED_EDGE ( 'NONE', *, *, #228, .F. ) ;
#49 = CARTESIAN_POINT ( 'NONE',  ( 8.301444432481138946, -7.985689750692663402, -2.080193905561719347 ) ) ;
#50 = DIRECTION ( 'NONE',  ( 0.000000000000000000, 0.000000000000000000, 1.000000000000000000 ) ) ;
#51 = CARTESIAN_POINT ( 'NONE',  ( 11.00000000000000000, 7.488415371999999515, 0.000000000000000000 ) ) ;
#52 = CARTESIAN_POINT ( 'NONE',  ( 11.00000000000000000, -12.25000000000000000, 0.000000000000000000 ) ) ;
#53 = EDGE_CURVE ( 'NONE', #366, #366, #214, .T. ) ;
#54 = PRODUCT_DEFINITION_FORMATION_WITH_SPECIFIED_SOURCE ( 'Symmetric', '', #172, .NOT_KNOWN. ) ;
#55 = CARTESIAN_POINT ( 'NONE',  ( 8.750325054783422374, -7.844848501835784305, 2.558760847823005502 ) ) ;
#56 = DIRECTION ( 'NONE',  ( -1.000000000000000000, 0.000000000000000000, 0.000000000000000000 ) ) ;
#57 = B_SPLINE_CURVE_WITH_KNOTS ( 'NONE', 3,
 ( #470, #110, #431, #478, #240, #384, #336, #511, #102, #197 ),
 .UNSPECIFIED., .F., .F.,
 ( 4, 2, 2, 2, 4 ),
 ( 0.000000000000000000, 0.004406884972825482298, 0.005508606216031853089, 0.006610327459238223013, 0.008813769945650964596 ),
 .UNSPECIFIED. ) ;
#58 = AXIS2_PLACEMENT_3D ( 'NONE', #93, #420, #131 ) ;
#59 = CARTESIAN_POINT ( 'NONE',  ( 8.441952525254803774, -7.938785940485620252, -2.250416126580057075 ) ) ;
#60 = CARTESIAN_POINT ( 'NONE',  ( 19.75026529413861098, -12.24999999999999822, 0.3630889051838545600 ) ) ;
#61 = CARTESIAN_POINT ( 'NONE',  ( 19.00000000000000000, 0.000000000000000000, 0.000000000000000000 ) ) ;
#62 = DIRECTION ( 'NONE',  ( -1.000000000000000000, -0.000000000000000000, -0.000000000000000000 ) ) ;
#63 = CARTESIAN_POINT ( 'NONE',  ( 13.08003227086599729, -7.797271449501245399, -2.698564808346682664 ) ) ;
#64 = CARTESIAN_POINT ( 'NONE',  ( 77.00000000000000000, 0.000000000000000000, 0.000000000000000000 ) ) ;
#65 = CARTESIAN_POINT ( 'NONE',  ( 9.285739229282720331, -7.707764310660130569, 2.944497515013078992 ) ) ;
#66 = CARTESIAN_POINT ( 'NONE',  ( 19.00000000000000000, 0.000000000000000000, 0.000000000000000000 ) ) ;
#67 = ORIENTED_EDGE ( 'NONE', *, *, #440, .F. ) ;
#68 = CARTESIAN_POINT ( 'NONE',  ( 19.00000000010757972, -12.25000000000000000, 4.351723796060788629 ) ) ;
#69 = AXIS2_PLACEMENT_3D ( 'NONE', #537, #119, #206 ) ;
#70 = FACE_OUTER_BOUND ( 'NONE', #422, .T. ) ;
#71 = ORIENTED_EDGE ( 'NONE', *, *, #80, .T. ) ;
#72 = EDGE_CURVE ( 'NONE', #21, #451, #89, .T. ) ;
#73 = CARTESIAN_POINT ( 'NONE',  ( 11.45313305732689457, -7.527229664412089960, -3.377234760477841213 ) ) ;
#74 = DIRECTION ( 'NONE',  ( 0.000000000000000000, 0.000000000000000000, 1.000000000000000000 ) ) ;
#75 = ORIENTED_EDGE ( 'NONE', *, *, #95, .T. ) ;
#76 = SURFACE_SIDE_STYLE ('',( #491 ) ) ;
#77 = DIRECTION ( 'NONE',  ( 1.000000000000000000, 0.000000000000000000, 0.000000000000000000 ) ) ;
#78 = EDGE_LOOP ( 'NONE', ( #588 ) ) ;
#79 =( LENGTH_UNIT ( ) NAMED_UNIT ( * ) SI_UNIT ( .MILLI., .METRE. ) );
#80 = EDGE_CURVE ( 'NONE', #532, #591, #481, .T. ) ;
#81 = CARTESIAN_POINT ( 'NONE',  ( 8.919295039525795943, 7.797453033587014026, 2.698040487723820213 ) ) ;
#82 = ORIENTED_EDGE ( 'NONE', *, *, #103, .T. ) ;
#83 = CARTESIAN_POINT ( 'NONE',  ( 0.000000000000000000, 0.000000000000000000, 0.000000000000000000 ) ) ;
#84 = CARTESIAN_POINT ( 'NONE',  ( 14.28850814008694492, 8.204580404711734332, 0.8922500111900946163 ) ) ;
#85 = PRODUCT_DEFINITION_SHAPE ( 'NONE', 'NONE',  #425 ) ;
#86 = FACE_OUTER_BOUND ( 'NONE', #462, .T. ) ;
#87 =( GEOMETRIC_REPRESENTATION_CONTEXT ( 3 ) GLOBAL_UNCERTAINTY_ASSIGNED_CONTEXT ( ( #17 ) ) GLOBAL_UNIT_ASSIGNED_CONTEXT ( ( #388, #258, #345 ) ) REPRESENTATION_CONTEXT ( 'NONE', 'WORKASPACE' ) );
#88 = SHAPE_DEFINITION_REPRESENTATION ( #85, #253 ) ;
#89 = CIRCLE ( 'NONE', #118, 13.00000000000000178 ) ;
#90 = CARTESIAN_POINT ( 'NONE',  ( 14.05070208411728139, 8.111908619436233536, 1.517295458596339186 ) ) ;
#91 = VERTEX_POINT ( 'NONE', #44 ) ;
#92 = CARTESIAN_POINT ( 'NONE',  ( 13.94617808263440573, 8.072731195549780026, 1.711570362889963004 ) ) ;
#93 = CARTESIAN_POINT ( 'NONE',  ( 76.99999999999995737, -3.209883240741468166E-29, 0.000000000000000000 ) ) ;
#94 = APPLICATION_CONTEXT ( 'automotive_design' ) ;
#95 = EDGE_CURVE ( 'NONE', #256, #532, #444, .T. ) ;
#96 = CARTESIAN_POINT ( 'NONE',  ( 4.051506083000000480, 0.000000000000000000, 8.250000000000000000 ) ) ;
#97 = CARTESIAN_POINT ( 'NONE',  ( 10.54547764583562675, 7.527316375967206596, 3.377042582781176527 ) ) ;
#98 = ORIENTED_EDGE ( 'NONE', *, *, #381, .F. ) ;
#99 = AXIS2_PLACEMENT_3D ( 'NONE', #437, #540, #350 ) ;
#100 = CARTESIAN_POINT ( 'NONE',  ( 8.297637361423388924, -7.986995127828349084, 2.075038656379378121 ) ) ;
#101 = CARTESIAN_POINT ( 'NONE',  ( -2.000000000000000000, 0.000000000000000000, 0.000000000000000000 ) ) ;
#102 = CARTESIAN_POINT ( 'NONE',  ( -2.236498239661197207, 12.25000000000000000, 3.645227414699376833 ) ) ;
#103 = EDGE_CURVE ( 'NONE', #451, #256, #11, .T. ) ;
#104 = DIRECTION ( 'NONE',  ( 0.000000000000000000, 0.000000000000000000, 1.000000000000000000 ) ) ;
#105 = AXIS2_PLACEMENT_3D ( 'NONE', #52, #239, #291 ) ;
#106 = CARTESIAN_POINT ( 'NONE',  ( 10.54980115711928690, -7.527129088200145368, -3.377444694210148146 ) ) ;
#107 = DIRECTION ( 'NONE',  ( -1.000000000000000000, -1.445602896647339163E-16, -0.000000000000000000 ) ) ;
#108 = CYLINDRICAL_SURFACE ( 'NONE', #271, 8.250000000000000000 ) ;
#109 = FACE_BOUND ( 'NONE', #502, .T. ) ;
#110 = CARTESIAN_POINT ( 'NONE',  ( -2.472586982543597323, 12.25000000000000000, -2.939954331537439902 ) ) ;
#111 = CARTESIAN_POINT ( 'NONE',  ( -2.000000000063988370, -12.25000000000000000, 4.351723796191152793 ) ) ;
#112 = CARTESIAN_POINT ( 'NONE',  ( 13.70199209767579163, -7.986868881904663375, -2.075527672410607316 ) ) ;
#113 = AXIS2_PLACEMENT_3D ( 'NONE', #61, #10, #296 ) ;
#114 = CARTESIAN_POINT ( 'NONE',  ( 19.47258698277865108, -12.25000000068328987, -2.939954331872000726 ) ) ;
#115 = STYLED_ITEM ( 'NONE', ( #576 ), #543 ) ;
#116 = CARTESIAN_POINT ( 'NONE',  ( 14.28850813601011005, -8.204580403072924355, 0.8922500262816223104 ) ) ;
#117 = PLANE ( 'NONE',  #69 ) ;
#118 = AXIS2_PLACEMENT_3D ( 'NONE', #101, #289, #41 ) ;
#119 = DIRECTION ( 'NONE',  ( 0.000000000000000000, 1.000000000000000000, 0.000000000000000000 ) ) ;
#120 = CARTESIAN_POINT ( 'NONE',  ( 10.77114690422399867, -7.516860489355107866, 3.399898292000859801 ) ) ;
#121 = CIRCLE ( 'NONE', #546, 8.250000000000000000 ) ;
#122 = DIRECTION ( 'NONE',  ( -1.000000000000000000, -1.320613203575840211E-15, -0.000000000000000000 ) ) ;
#123 = EDGE_LOOP ( 'NONE', ( #235 ) ) ;
#124 = CARTESIAN_POINT ( 'NONE',  ( 14.29010685537644676, -8.205223681641648170, -0.8861189008732829331 ) ) ;
#125 = CARTESIAN_POINT ( 'NONE',  ( 8.500000000000000000, 12.25000000000000000, 4.351723796000000810 ) ) ;
#126 = ORIENTED_EDGE ( 'NONE', *, *, #9, .F. ) ;
#127 = FACE_OUTER_BOUND ( 'NONE', #268, .T. ) ;
#128 = CARTESIAN_POINT ( 'NONE',  ( 10.54980114185502593, 7.527129089121320504, -3.377444692172222318 ) ) ;
#129 = ORIENTED_EDGE ( 'NONE', *, *, #208, .T. ) ;
#130 = CARTESIAN_POINT ( 'NONE',  ( 9.485049025142883394, 7.665296400254357323, -3.051933656085179525 ) ) ;
#131 = DIRECTION ( 'NONE',  ( 1.541976423090487942E-15, -1.000000000000000000, 0.000000000000000000 ) ) ;
#132 = DIRECTION ( 'NONE',  ( 0.000000000000000000, 0.000000000000000000, 1.000000000000000000 ) ) ;
#133 = CARTESIAN_POINT ( 'NONE',  ( 7.600338491403530128, 8.249860500640327388, -0.2297016800055818042 ) ) ;
#134 = VERTEX_POINT ( 'NONE', #542 ) ;
#135 = CIRCLE ( 'NONE', #58, 9.000000000000042633 ) ;
#136 = CARTESIAN_POINT ( 'NONE',  ( 11.22582097969449322, 7.516768786635863009, 3.400101030945226199 ) ) ;
#137 = EDGE_CURVE ( 'NONE', #218, #218, #224, .T. ) ;
#138 = CARTESIAN_POINT ( 'NONE',  ( 19.00000000006394174, -12.25000000000000000, -4.351723796191152793 ) ) ;
#139 = CARTESIAN_POINT ( 'NONE',  ( 75.20000000000000284, 0.000000000000000000, 8.250000000000000000 ) ) ;
#140 = ORIENTED_EDGE ( 'NONE', *, *, #595, .T. ) ;
#141 = DIRECTION ( 'NONE',  ( -1.000000000000000000, 0.000000000000000000, 0.000000000000000000 ) ) ;
#142 = CARTESIAN_POINT ( 'NONE',  ( -2.000000000280991230, 12.24999999998762945, -4.351723795577713716 ) ) ;
#143 = MECHANICAL_DESIGN_GEOMETRIC_PRESENTATION_REPRESENTATION (  '', ( #115 ), #87 ) ;
#144 = ADVANCED_FACE ( 'NONE', ( #385, #109 ), #581, .T. ) ;
#145 = FACE_BOUND ( 'NONE', #545, .T. ) ;
#146 = CARTESIAN_POINT ( 'NONE',  ( 8.500000000000000000, -12.25000000000000000, -4.351723796000000810 ) ) ;
#147 = CARTESIAN_POINT ( 'NONE',  ( 10.11215739587459872, -7.565927425107762616, -3.289612009170570950 ) ) ;
#148 = FACE_OUTER_BOUND ( 'NONE', #396, .T. ) ;
#149 = AXIS2_PLACEMENT_3D ( 'NONE', #404, #353, #74 ) ;
#150 = CARTESIAN_POINT ( 'NONE',  ( 8.751863364022362646, -7.844414169319892771, -2.560051033045437574 ) ) ;
#151 = CARTESIAN_POINT ( 'NONE',  ( 75.20000000000000284, 0.000000000000000000, 0.000000000000000000 ) ) ;
#152 = APPLICATION_CONTEXT ( 'automotive_design' ) ;
#153 = CARTESIAN_POINT ( 'NONE',  ( 7.709832614054224820, -8.205248060815764077, 0.8858786602476588223 ) ) ;
#154 = CARTESIAN_POINT ( 'NONE',  ( -2.748922864891814033, -12.25000000000000178, 1.496570076988231746 ) ) ;
#155 = ADVANCED_FACE ( 'NONE', ( #383, #148 ), #427, .T. ) ;
#156 = CARTESIAN_POINT ( 'NONE',  ( 9.483127329129871441, -7.665710083333712177, 3.050884672899317529 ) ) ;
#157 = CARTESIAN_POINT ( 'NONE',  ( -2.236498239720177139, -12.25000000000000000, -3.645227414497090646 ) ) ;
#158 = CARTESIAN_POINT ( 'NONE',  ( 11.88664221341089267, -7.565784355633846658, 3.289939907315373002 ) ) ;
#159 = CARTESIAN_POINT ( 'NONE',  ( 20.00000000000000355, 0.000000000000000000, 0.000000000000000000 ) ) ;
#160 = ORIENTED_EDGE ( 'NONE', *, *, #295, .T. ) ;
#161 = EDGE_CURVE ( 'NONE', #91, #21, #339, .T. ) ;
#162 = FACE_OUTER_BOUND ( 'NONE', #311, .T. ) ;
#163 = CARTESIAN_POINT ( 'NONE',  ( 13.55990833354695191, -7.939377787266548303, -2.248374708640393571 ) ) ;
#164 = PLANE ( 'NONE',  #359 ) ;
#165 = EDGE_LOOP ( 'NONE', ( #28, #365, #358, #529 ) ) ;
#166 = CARTESIAN_POINT ( 'NONE',  ( 13.69817817889538070, -7.985561291846847709, 2.080690490390734393 ) ) ;
#167 = CARTESIAN_POINT ( 'NONE',  ( 19.23649823966021799, 12.25000000000000000, -3.645227414683769762 ) ) ;
#168 = EDGE_LOOP ( 'NONE', ( #484 ) ) ;
#169 = VERTEX_POINT ( 'NONE', #600 ) ;
#170 = CARTESIAN_POINT ( 'NONE',  ( 19.73336168876349817, 12.25000000000000000, -0.7368029947517533707 ) ) ;
#171 = EDGE_LOOP ( 'NONE', ( #538 ) ) ;
#172 = PRODUCT ( 'Cooling_housingcover_v3.1_1', 'Cooling_housingcover_v3.1_1', '', ( #38 ) ) ;
#173 = VERTEX_POINT ( 'NONE', #552 ) ;
#174 = CARTESIAN_POINT ( 'NONE',  ( 13.24908318868443047, 7.844677441566675569, -2.559285899800499031 ) ) ;
#175 = EDGE_LOOP ( 'NONE', ( #493 ) ) ;
#176 = CARTESIAN_POINT ( 'NONE',  ( -3.000000000000000000, 0.000000000000000000, 0.000000000000000000 ) ) ;
#177 = CARTESIAN_POINT ( 'NONE',  ( 10.77271475010405943, 7.516814485229431853, -3.399999998645513610 ) ) ;
#178 = AXIS2_PLACEMENT_3D ( 'NONE', #202, #424, #389 ) ;
#179 = PLANE ( 'NONE',  #474 ) ;
#180 = CARTESIAN_POINT ( 'NONE',  ( 76.99999999999997158, -9.000000000000042633, 0.000000000000000000 ) ) ;
#181 = EDGE_CURVE ( 'NONE', #360, #360, #121, .T. ) ;
#182 = CARTESIAN_POINT ( 'NONE',  ( 8.751863352721887424, 7.844414172571918087, -2.560051023121637126 ) ) ;
#183 = ORIENTED_EDGE ( 'NONE', *, *, #208, .F. ) ;
#184 = VERTEX_POINT ( 'NONE', #407 ) ;
#185 = CARTESIAN_POINT ( 'NONE',  ( 14.37782633742108906, 8.240788998128929066, -0.4475478303479508146 ) ) ;
#186 = DIRECTION ( 'NONE',  ( 0.000000000000000000, -1.000000000000000000, 0.000000000000000000 ) ) ;
#187 = CARTESIAN_POINT ( 'NONE',  ( 7.778264340541817923, 8.177766538592265988, -1.108765845389870330 ) ) ;
#188 = DIRECTION ( 'NONE',  ( -1.000000000000000000, 0.000000000000000000, 0.000000000000000000 ) ) ;
#189 = ADVANCED_FACE ( 'NONE', ( #523, #512 ), #476, .F. ) ;
#190 = COLOUR_RGB ( '',0.7921568627450980005, 0.8196078431372548767, 0.9333333333333333481 ) ;
#191 = CARTESIAN_POINT ( 'NONE',  ( 7.711430154544210325, -8.204605249174393933, -0.8920065678283458643 ) ) ;
#192 = CARTESIAN_POINT ( 'NONE',  ( 19.00000000006394174, -12.25000000000000000, -4.351723796191152793 ) ) ;
#193 = AXIS2_PLACEMENT_3D ( 'NONE', #176, #410, #269 ) ;
#194 = DIRECTION ( 'NONE',  ( -1.000000000000000000, 0.000000000000000000, 0.000000000000000000 ) ) ;
#195 = AXIS2_PLACEMENT_3D ( 'NONE', #507, #188, #324 ) ;
#196 = CARTESIAN_POINT ( 'NONE',  ( 19.74892286493242821, -12.25000000000000533, -1.496570076772686830 ) ) ;
#197 = CARTESIAN_POINT ( 'NONE',  ( -2.000000000063988370, 12.25000000000000000, 4.351723796191152793 ) ) ;
#198 = DIRECTION ( 'NONE',  ( -1.000000000000000000, 0.000000000000000000, 0.000000000000000000 ) ) ;
#199 = AXIS2_PLACEMENT_3D ( 'NONE', #471, #204, #568 ) ;
#200 = FACE_BOUND ( 'NONE', #168, .T. ) ;
#201 = EDGE_CURVE ( 'NONE', #547, #547, #460, .T. ) ;
#202 = CARTESIAN_POINT ( 'NONE',  ( 11.00000000000000000, 12.25000000000000000, 0.000000000000000000 ) ) ;
#203 = CARTESIAN_POINT ( 'NONE',  ( 7.947531856470796185, -8.112565495300755103, 1.514216000037873711 ) ) ;
#204 = DIRECTION ( 'NONE',  ( 1.000000000000000000, 1.445602896647339163E-16, 0.000000000000000000 ) ) ;
#205 = FACE_BOUND ( 'NONE', #374, .T. ) ;
#206 = DIRECTION ( 'NONE',  ( 0.000000000000000000, 0.000000000000000000, 1.000000000000000000 ) ) ;
#207 = ORIENTED_EDGE ( 'NONE', *, *, #525, .T. ) ;
#208 = EDGE_CURVE ( 'NONE', #282, #282, #231, .T. ) ;
#209 = CARTESIAN_POINT ( 'NONE',  ( 11.22582096383480632, -7.516768786166627692, 3.400101031982627919 ) ) ;
#210 = DIRECTION ( 'NONE',  ( 1.334402673828312846E-16, 0.000000000000000000, -1.000000000000000000 ) ) ;
#211 = ORIENTED_EDGE ( 'NONE', *, *, #276, .T. ) ;
#212 = CARTESIAN_POINT ( 'NONE',  ( 13.07577595922852609, -7.796126099178143143, 2.701866138364170666 ) ) ;
#213 = CARTESIAN_POINT ( 'NONE',  ( 76.99999999999995737, -5.506043309189942568E-29, 0.000000000000000000 ) ) ;
#214 = CIRCLE ( 'NONE', #195, 10.00000000000000000 ) ;
#215 = FILL_AREA_STYLE ('',( #313 ) ) ;
#216 = DIRECTION ( 'NONE',  ( 2.641226407151645712E-15, -1.000000000000000000, 0.000000000000000000 ) ) ;
#217 = VERTEX_POINT ( 'NONE', #111 ) ;
#218 = VERTEX_POINT ( 'NONE', #603 ) ;
#219 = CARTESIAN_POINT ( 'NONE',  ( 19.00000000019430502, 12.24999999998762945, -4.351723795836658581 ) ) ;
#220 = CARTESIAN_POINT ( 'NONE',  ( 10.99999999860529165, -7.516814485053768813, -3.400000000279808532 ) ) ;
#221 = CIRCLE ( 'NONE', #193, 10.00000000000000000 ) ;
#222 = CARTESIAN_POINT ( 'NONE',  ( 14.39966140151133622, 8.249860456508322670, 0.2297643129302966714 ) ) ;
#223 = EDGE_LOOP ( 'NONE', ( #211 ) ) ;
#224 = CIRCLE ( 'NONE', #39, 12.00000000000010836 ) ;
#225 = APPLICATION_PROTOCOL_DEFINITION ( 'draft international standard', 'automotive_design', 1998, #152 ) ;
#226 = CARTESIAN_POINT ( 'NONE',  ( 13.08003225910684897, 7.797271446345661161, -2.698564817432699048 ) ) ;
#227 = CARTESIAN_POINT ( 'NONE',  ( 18.99999999999990763, 0.000000000000000000, 0.000000000000000000 ) ) ;
#228 = EDGE_CURVE ( 'NONE', #169, #169, #566, .T. ) ;
#229 = VERTEX_POINT ( 'NONE', #180 ) ;
#230 = CARTESIAN_POINT ( 'NONE',  ( 8.297637370591445460, 7.986995124715165595, 2.075038668314897805 ) ) ;
#231 = CIRCLE ( 'NONE', #292, 8.250000000000000000 ) ;
#232 = EDGE_LOOP ( 'NONE', ( #315 ) ) ;
#233 = VERTEX_POINT ( 'NONE', #459 ) ;
#234 = CARTESIAN_POINT ( 'NONE',  ( 7.622714650104301271, 8.240565029233842154, -0.4520077553504024404 ) ) ;
#235 = ORIENTED_EDGE ( 'NONE', *, *, #181, .T. ) ;
#236 = CARTESIAN_POINT ( 'NONE',  ( 9.483127342665811810, 7.665710080642647029, 3.050884679632791752 ) ) ;
#237 = EDGE_LOOP ( 'NONE', ( #392 ) ) ;
#238 = CARTESIAN_POINT ( 'NONE',  ( 10.99999998323341899, 7.516814484722465828, -3.399999999766336600 ) ) ;
#239 = DIRECTION ( 'NONE',  ( 2.551063935260009998E-16, -1.000000000000000000, -0.000000000000000000 ) ) ;
#240 = CARTESIAN_POINT ( 'NONE',  ( -2.733361688792125044, 12.25000000000000000, 0.7368029943048451935 ) ) ;
#241 = CARTESIAN_POINT ( 'NONE',  ( 20.00000000000000000, 0.000000000000000000, 0.000000000000000000 ) ) ;
#242 =( GEOMETRIC_REPRESENTATION_CONTEXT ( 3 ) GLOBAL_UNCERTAINTY_ASSIGNED_CONTEXT ( ( #306 ) ) GLOBAL_UNIT_ASSIGNED_CONTEXT ( ( #79, #319, #279 ) ) REPRESENTATION_CONTEXT ( 'NONE', 'WORKASPACE' ) );
#243 = CARTESIAN_POINT ( 'NONE',  ( 11.22728521636277677, 7.516814484215498915, -3.400000000887159590 ) ) ;
#244 = CARTESIAN_POINT ( 'NONE',  ( 4.051506083000000480, 0.000000000000000000, 0.000000000000000000 ) ) ;
#245 = EDGE_CURVE ( 'NONE', #329, #329, #439, .T. ) ;
#246 = CARTESIAN_POINT ( 'NONE',  ( 8.053579068506001803, -8.072820755403705917, -1.711143632246342694 ) ) ;
#247 = CARTESIAN_POINT ( 'NONE',  ( 19.73336168878726582, -12.25000000000000000, 0.7368029944033576140 ) ) ;
#248 = CARTESIAN_POINT ( 'NONE',  ( 8.923538335185259740, -7.796310578970651939, -2.701334567292779543 ) ) ;
#249 = CARTESIAN_POINT ( 'NONE',  ( 76.50000000000000000, 0.000000000000000000, 0.000000000000000000 ) ) ;
#250 = AXIS2_PLACEMENT_3D ( 'NONE', #16, #586, #492 ) ;
#251 = DIRECTION ( 'NONE',  ( 0.000000000000000000, 0.000000000000000000, 1.000000000000000000 ) ) ;
#252 = EDGE_CURVE ( 'NONE', #217, #451, #551, .T. ) ;
#253 = ADVANCED_BREP_SHAPE_REPRESENTATION ( 'Cooling_housingcover_v3.1_1', ( #543, #579 ), #242 ) ;
#254 = CARTESIAN_POINT ( 'NONE',  ( 12.71340612921119551, -7.707572145168787081, -2.945000120385844689 ) ) ;
#255 = FACE_OUTER_BOUND ( 'NONE', #305, .T. ) ;
#256 = VERTEX_POINT ( 'NONE', #192 ) ;
#257 = AXIS2_PLACEMENT_3D ( 'NONE', #448, #442, #210 ) ;
#258 =( NAMED_UNIT ( * ) PLANE_ANGLE_UNIT ( ) SI_UNIT ( $, .RADIAN. ) );
#259 = LINE ( 'NONE', #125, #508 ) ;
#260 = ORIENTED_EDGE ( 'NONE', *, *, #161, .F. ) ;
#261 = AXIS2_PLACEMENT_3D ( 'NONE', #159, #527, #304 ) ;
#262 = CARTESIAN_POINT ( 'NONE',  ( 10.99999999860528987, -7.516814485053768813, -3.400000000279808532 ) ) ;
#263 = DIRECTION ( 'NONE',  ( 2.641226407151680422E-15, -1.000000000000000000, 0.000000000000000000 ) ) ;
#264 = ORIENTED_EDGE ( 'NONE', *, *, #572, .F. ) ;
#265 = EDGE_CURVE ( 'NONE', #399, #217, #513, .T. ) ;
#266 = CARTESIAN_POINT ( 'NONE',  ( 10.54547763073069078, -7.527316376886238558, 3.377042580748295553 ) ) ;
#267 = CARTESIAN_POINT ( 'NONE',  ( -2.000000000063988370, 12.25000000000000000, 4.351723796191152793 ) ) ;
#268 = EDGE_LOOP ( 'NONE', ( #535 ) ) ;
#269 = DIRECTION ( 'NONE',  ( 0.000000000000000000, 0.000000000000000000, 1.000000000000000000 ) ) ;
#270 = CARTESIAN_POINT ( 'NONE',  ( 7.774918930803725203, 8.179077273814835181, 1.099665385073435253 ) ) ;
#271 = AXIS2_PLACEMENT_3D ( 'NONE', #386, #141, #290 ) ;
#272 = ORIENTED_EDGE ( 'NONE', *, *, #501, .F. ) ;
#273 = APPLICATION_PROTOCOL_DEFINITION ( 'draft international standard', 'automotive_design', 1998, #94 ) ;
#274 = CONICAL_SURFACE ( 'NONE', #37, 9.000000000000001776, 0.7853981633974466137 ) ;
#275 = CARTESIAN_POINT ( 'NONE',  ( 12.10372491015883512, 7.594725924130838912, 3.223538205092849385 ) ) ;
#276 = EDGE_CURVE ( 'NONE', #233, #233, #599, .T. ) ;
#277 = CARTESIAN_POINT ( 'NONE',  ( -3.000000000000000000, 0.000000000000000000, 0.000000000000000000 ) ) ;
#278 = VECTOR ( 'NONE', #562, 1000.000000000000000 ) ;
#279 =( NAMED_UNIT ( * ) SI_UNIT ( $, .STERADIAN. ) SOLID_ANGLE_UNIT ( ) );
#280 = CARTESIAN_POINT ( 'NONE',  ( 13.55990832353241515, 7.939377784026448559, -2.248374720025565043 ) ) ;
#281 = DIRECTION ( 'NONE',  ( -1.000000000000000000, 0.000000000000000000, 0.000000000000000000 ) ) ;
#282 = VERTEX_POINT ( 'NONE', #139 ) ;
#283 = CARTESIAN_POINT ( 'NONE',  ( 13.07577597141075110, 7.796126102431546023, 2.701866129022381102 ) ) ;
#284 = DIRECTION ( 'NONE',  ( 0.000000000000000000, 0.000000000000000000, -1.000000000000000000 ) ) ;
#285 = CARTESIAN_POINT ( 'NONE',  ( 11.88664222809323867, 7.565784357359484069, 3.289939903362545603 ) ) ;
#286 = CONICAL_SURFACE ( 'NONE', #12, 5.254296931999999920, 1.029744258642623311 ) ;
#287 = EDGE_LOOP ( 'NONE', ( #71, #98, #377, #465 ) ) ;
#288 = CARTESIAN_POINT ( 'NONE',  ( 8.439647554977762312, -7.939522359711020272, 2.247863383917227065 ) ) ;
#289 = DIRECTION ( 'NONE',  ( -1.000000000000000000, 0.000000000000000000, 0.000000000000000000 ) ) ;
#290 = DIRECTION ( 'NONE',  ( 0.000000000000000000, 0.000000000000000000, 1.000000000000000000 ) ) ;
#291 = DIRECTION ( 'NONE',  ( -1.000000000000000000, 0.000000000000000000, 0.000000000000000000 ) ) ;
#292 = AXIS2_PLACEMENT_3D ( 'NONE', #151, #518, #104 ) ;
#293 = CARTESIAN_POINT ( 'NONE',  ( 9.485049038721056647, -7.665296397558241104, -3.051933662828220761 ) ) ;
#294 = CARTESIAN_POINT ( 'NONE',  ( 8.500000000000000000, 12.24999999997526068, -4.351723796451946846 ) ) ;
#295 = EDGE_CURVE ( 'NONE', #591, #91, #577, .T. ) ;
#296 = DIRECTION ( 'NONE',  ( 0.000000000000000000, 0.000000000000000000, 1.000000000000000000 ) ) ;
#297 = DIRECTION ( 'NONE',  ( 0.000000000000000000, 0.000000000000000000, -1.000000000000000000 ) ) ;
#298 = FACE_OUTER_BOUND ( 'NONE', #123, .T. ) ;
#299 = CARTESIAN_POINT ( 'NONE',  ( -2.617676717246409268, -12.24999999999999822, -1.840428092479578170 ) ) ;
#300 = ADVANCED_FACE ( 'NONE', ( #445 ), #23, .T. ) ;
#301 = PLANE ( 'NONE',  #149 ) ;
#302 = CARTESIAN_POINT ( 'NONE',  ( 13.24908319982131211, -7.844677444770868924, -2.559285890028391464 ) ) ;
#303 = AXIS2_PLACEMENT_3D ( 'NONE', #277, #454, #284 ) ;
#304 = DIRECTION ( 'NONE',  ( 0.000000000000000000, 0.000000000000000000, 1.000000000000000000 ) ) ;
#305 = EDGE_LOOP ( 'NONE', ( #126 ) ) ;
#306 = UNCERTAINTY_MEASURE_WITH_UNIT (LENGTH_MEASURE( 1.000000000000000082E-05 ), #79, 'distance_accuracy_value', 'NONE');
#307 = CARTESIAN_POINT ( 'NONE',  ( 14.05070207747905719, -8.111908616931915006, 1.517295471924406725 ) ) ;
#308 = FACE_BOUND ( 'NONE', #223, .T. ) ;
#309 = CARTESIAN_POINT ( 'NONE',  ( 14.37727300301296474, -8.240559857604566218, 0.4521315440488614668 ) ) ;
#310 = CARTESIAN_POINT ( 'NONE',  ( -3.000000000000000000, -12.14399999999999835, -12.14399999999999835 ) ) ;
#311 = EDGE_LOOP ( 'NONE', ( #183 ) ) ;
#312 = ADVANCED_FACE ( 'NONE', ( #395, #70 ), #117, .T. ) ;
#313 = FILL_AREA_STYLE_COLOUR ( '', #190 ) ;
#314 = FACE_BOUND ( 'NONE', #409, .T. ) ;
#315 = ORIENTED_EDGE ( 'NONE', *, *, #228, .T. ) ;
#316 = VERTEX_POINT ( 'NONE', #220 ) ;
#317 = CARTESIAN_POINT ( 'NONE',  ( 8.301444423333892431, 7.985689753794916079, -2.080193893702783736 ) ) ;
#318 = ORIENTED_EDGE ( 'NONE', *, *, #245, .F. ) ;
#319 =( NAMED_UNIT ( * ) PLANE_ANGLE_UNIT ( ) SI_UNIT ( $, .RADIAN. ) );
#320 = ADVANCED_FACE ( 'NONE', ( #583, #255 ), #301, .F. ) ;
#321 = CARTESIAN_POINT ( 'NONE',  ( 8.750325066068594282, 7.844848498586022956, 2.558760857745278283 ) ) ;
#322 = ORIENTED_EDGE ( 'NONE', *, *, #252, .F. ) ;
#323 = CARTESIAN_POINT ( 'NONE',  ( 11.89600953785437731, 7.566815046291368141, -3.287584387252405538 ) ) ;
#324 = DIRECTION ( 'NONE',  ( 1.084202172485504434E-14, 0.000000000000000000, 1.000000000000000000 ) ) ;
#325 = AXIS2_PLACEMENT_3D ( 'NONE', #249, #335, #468 ) ;
#326 = VERTEX_POINT ( 'NONE', #494 ) ;
#327 = CARTESIAN_POINT ( 'NONE',  ( 10.11215738110293572, 7.565927426849353488, -3.289612005180451604 ) ) ;
#328 = FACE_OUTER_BOUND ( 'NONE', #550, .T. ) ;
#329 = VERTEX_POINT ( 'NONE', #455 ) ;
#330 = CARTESIAN_POINT ( 'NONE',  ( 7.711430150553440832, 8.204605250778405079, -0.8920065531306587969 ) ) ;
#331 = DIRECTION ( 'NONE',  ( 0.000000000000000000, 0.000000000000000000, -1.000000000000000000 ) ) ;
#332 = FACE_OUTER_BOUND ( 'NONE', #287, .T. ) ;
#333 = ORIENTED_EDGE ( 'NONE', *, *, #53, .F. ) ;
#334 = FACE_OUTER_BOUND ( 'NONE', #237, .T. ) ;
#335 = DIRECTION ( 'NONE',  ( -1.000000000000000000, 0.000000000000000000, 0.000000000000000000 ) ) ;
#336 = CARTESIAN_POINT ( 'NONE',  ( -2.617676717207972903, 12.24999999999999822, 1.840428092735860277 ) ) ;
#337 = B_SPLINE_CURVE_WITH_KNOTS ( 'NONE', 3,
 ( #500, #177, #128, #327, #372, #130, #553, #464, #182, #461, #317, #47, #555, #187, #330, #234, #133, #411, #495, #364, #270, #43, #456, #230, #45, #321, #81, #544, #236, #450, #34, #97, #506, #136, #414, #285, #275, #419, #370, #283, #503, #421, #597, #92, #90, #497, #84, #604, #222, #408, #185, #1, #452, #375, #40, #593, #280, #174, #226, #367, #549, #601, #323, #433, #243, #238 ),
 .UNSPECIFIED., .T., .F.,
 ( 4, 2, 2, 2, 2, 2, 2, 2, 2, 2, 2, 2, 2, 2, 2, 2, 2, 2, 2, 2, 2, 2, 2, 2, 2, 2, 2, 2, 2, 2, 2, 2, 4 ),
 ( 0.000000000000000000, 0.0006715018028628155300, 0.001343003605725631060, 0.002014505408588446699, 0.002686007211451262120, 0.003357509014314077542, 0.004029010817176893397, 0.004700512620039708385, 0.005372014422902524240, 0.006043516225765340096, 0.006715018028628155083, 0.007386519831490970939, 0.008058021634353786794, 0.008729523437216602649, 0.009401025240079416770, 0.01007252704294223263, 0.01074402884580504848, 0.01141553064866786434, 0.01208703245153068019, 0.01275853425439349431, 0.01343003605725631017, 0.01410153786011912602, 0.01477303966298194188, 0.01544454146584475773, 0.01611604326870757359, 0.01678754507157038944, 0.01745904687443320530, 0.01813054867729601768, 0.01880205048015883354, 0.01947355228302164940, 0.02014505408588446525, 0.02081655588874728111, 0.02148805769161009696 ),
 .UNSPECIFIED. ) ;
#338 = ADVANCED_FACE ( 'NONE', ( #162, #308 ), #286, .F. ) ;
#339 = LINE ( 'NONE', #294, #563 ) ;
#340 = AXIS2_PLACEMENT_3D ( 'NONE', #213, #489, #216 ) ;
#341 = CYLINDRICAL_SURFACE ( 'NONE', #557, 3.400000000000000355 ) ;
#342 = DIRECTION ( 'NONE',  ( -2.551063935260009998E-16, 1.000000000000000000, 0.000000000000000000 ) ) ;
#343 = FACE_OUTER_BOUND ( 'NONE', #443, .T. ) ;
#344 = CARTESIAN_POINT ( 'NONE',  ( -2.750265294148459105, -12.24999999999999822, -0.3630889048213719050 ) ) ;
#345 =( NAMED_UNIT ( * ) SI_UNIT ( $, .STERADIAN. ) SOLID_ANGLE_UNIT ( ) );
#346 = CARTESIAN_POINT ( 'NONE',  ( -2.000000000213927986, -12.25000000000000000, -4.351723795552079999 ) ) ;
#347 = CARTESIAN_POINT ( 'NONE',  ( 12.10372489560879039, -7.594725921999123663, 3.223538210090465927 ) ) ;
#348 = PLANE ( 'NONE',  #99 ) ;
#349 = ORIENTED_EDGE ( 'NONE', *, *, #265, .F. ) ;
#350 = DIRECTION ( 'NONE',  ( 0.000000000000000000, 0.000000000000000000, 1.000000000000000000 ) ) ;
#351 = ORIENTED_EDGE ( 'NONE', *, *, #440, .T. ) ;
#352 = CARTESIAN_POINT ( 'NONE',  ( 12.51593832936791451, -7.665522943457608207, -3.051353523013518920 ) ) ;
#353 = DIRECTION ( 'NONE',  ( -1.000000000000000000, 0.000000000000000000, 0.000000000000000000 ) ) ;
#354 = ADVANCED_FACE ( 'NONE', ( #314, #578 ), #164, .T. ) ;
#355 = ORIENTED_EDGE ( 'NONE', *, *, #418, .T. ) ;
#356 = CARTESIAN_POINT ( 'NONE',  ( 13.55760723975106430, -7.938642684693748564, 2.250922418162629501 ) ) ;
#357 = CARTESIAN_POINT ( 'NONE',  ( 19.66704436168473080, 12.24999999999999467, -1.474536527534192398 ) ) ;
#358 = ORIENTED_EDGE ( 'NONE', *, *, #95, .F. ) ;
#359 = AXIS2_PLACEMENT_3D ( 'NONE', #310, #27, #251 ) ;
#360 = VERTEX_POINT ( 'NONE', #96 ) ;
#361 = CARTESIAN_POINT ( 'NONE',  ( 19.47258698319231129, 12.25000000100412656, 2.939954330600941024 ) ) ;
#362 = ORIENTED_EDGE ( 'NONE', *, *, #483, .T. ) ;
#363 = ADVANCED_FACE ( 'NONE', ( #391, #401 ), #348, .F. ) ;
#364 = CARTESIAN_POINT ( 'NONE',  ( 7.709832618034411666, 8.205248059215364265, 0.8858786750248874853 ) ) ;
#365 = ORIENTED_EDGE ( 'NONE', *, *, #80, .F. ) ;
#366 = VERTEX_POINT ( 'NONE', #413 ) ;
#367 = CARTESIAN_POINT ( 'NONE',  ( 12.71340611590839842, 7.707572142192675280, -2.945000128145732532 ) ) ;
#368 = EDGE_LOOP ( 'NONE', ( #46 ) ) ;
#369 = DIRECTION ( 'NONE',  ( 7.205774438672890158E-15, 0.000000000000000000, 1.000000000000000000 ) ) ;
#370 = CARTESIAN_POINT ( 'NONE',  ( 12.70821088507947394, 7.706407772070739348, 2.948040371965862771 ) ) ;
#371 = EDGE_LOOP ( 'NONE', ( #272 ) ) ;
#372 = CARTESIAN_POINT ( 'NONE',  ( 9.895155209507187521, 7.594891339486768089, -3.223149622075722309 ) ) ;
#373 = ADVANCED_FACE ( 'NONE', ( #435, #480 ), #574, .F. ) ;
#374 = EDGE_LOOP ( 'NONE', ( #405 ) ) ;
#375 = CARTESIAN_POINT ( 'NONE',  ( 14.05227942846409661, 8.112494078588706969, -1.514604870337622922 ) ) ;
#376 = VECTOR ( 'NONE', #394, 1000.000000000000000 ) ;
#377 = ORIENTED_EDGE ( 'NONE', *, *, #265, .T. ) ;
#378 = CARTESIAN_POINT ( 'NONE',  ( 7.622714652144456871, -8.240565028393296743, -0.4520077705640512811 ) ) ;
#379 = CIRCLE ( 'NONE', #5, 13.00000000000000178 ) ;
#380 = CARTESIAN_POINT ( 'NONE',  ( 19.00000000010757972, -12.25000000000000000, 4.351723796060788629 ) ) ;
#381 = EDGE_CURVE ( 'NONE', #399, #591, #259, .T. ) ;
#382 = DIRECTION ( 'NONE',  ( -1.460819769243626933E-15, 0.000000000000000000, 1.000000000000000000 ) ) ;
#383 = FACE_OUTER_BOUND ( 'NONE', #541, .T. ) ;
#384 = CARTESIAN_POINT ( 'NONE',  ( -2.667044361725932511, 12.25000000000000178, 1.474536527204367120 ) ) ;
#385 = FACE_OUTER_BOUND ( 'NONE', #165, .T. ) ;
#386 = CARTESIAN_POINT ( 'NONE',  ( 75.20000000000000284, 0.000000000000000000, 0.000000000000000000 ) ) ;
#387 = CARTESIAN_POINT ( 'NONE',  ( -2.000000000063988370, -12.25000000000000000, 4.351723796191152793 ) ) ;
#388 =( LENGTH_UNIT ( ) NAMED_UNIT ( * ) SI_UNIT ( .MILLI., .METRE. ) );
#389 = DIRECTION ( 'NONE',  ( -1.000000000000000000, 0.000000000000000000, 0.000000000000000000 ) ) ;
#390 = FACE_OUTER_BOUND ( 'NONE', #371, .T. ) ;
#391 = FACE_BOUND ( 'NONE', #78, .T. ) ;
#392 = ORIENTED_EDGE ( 'NONE', *, *, #245, .T. ) ;
#393 = PRODUCT_DEFINITION_CONTEXT ( 'detailed design', #152, 'design' ) ;
#394 = DIRECTION ( 'NONE',  ( -1.000000000000000000, -0.000000000000000000, -0.000000000000000000 ) ) ;
#395 = FACE_BOUND ( 'NONE', #559, .T. ) ;
#396 = EDGE_LOOP ( 'NONE', ( #602 ) ) ;
#397 = CARTESIAN_POINT ( 'NONE',  ( 13.94617807512364216, -8.072731192794345034, 1.711570375862573545 ) ) ;
#398 = CARTESIAN_POINT ( 'NONE',  ( 19.00000000006393819, 12.25000000000000000, 4.351723796191152793 ) ) ;
#399 = VERTEX_POINT ( 'NONE', #267 ) ;
#400 = CARTESIAN_POINT ( 'NONE',  ( 11.44884470074627281, -7.527045905714921048, 3.377628967628097278 ) ) ;
#401 = FACE_OUTER_BOUND ( 'NONE', #487, .T. ) ;
#402 = ORIENTED_EDGE ( 'NONE', *, *, #483, .F. ) ;
#403 = DIRECTION ( 'NONE',  ( 0.000000000000000000, 0.000000000000000000, 1.000000000000000000 ) ) ;
#404 = CARTESIAN_POINT ( 'NONE',  ( 77.00000000000000000, -9.108000000000000540, -9.108000000000000540 ) ) ;
#405 = ORIENTED_EDGE ( 'NONE', *, *, #9, .T. ) ;
#406 = PRESENTATION_LAYER_ASSIGNMENT (  '', '', ( #115 ) ) ;
#407 = CARTESIAN_POINT ( 'NONE',  ( 10.99999998323341899, 7.516814484722466716, -3.399999999766336600 ) ) ;
#408 = CARTESIAN_POINT ( 'NONE',  ( 14.40033104908667028, 8.250136432224412175, -0.2196316030070959990 ) ) ;
#409 = EDGE_LOOP ( 'NONE', ( #264 ) ) ;
#410 = DIRECTION ( 'NONE',  ( -1.000000000000000000, 0.000000000000000000, 0.000000000000000000 ) ) ;
#411 = CARTESIAN_POINT ( 'NONE',  ( 7.599669057378014791, 8.250136388348108696, 0.2195693864757022329 ) ) ;
#412 = ORIENTED_EDGE ( 'NONE', *, *, #539, .T. ) ;
#413 = CARTESIAN_POINT ( 'NONE',  ( 3.000000000000000000, 0.000000000000000000, 10.00000000000000000 ) ) ;
#414 = CARTESIAN_POINT ( 'NONE',  ( 11.44884471570053819, 7.527045906611674830, 3.377628965644834835 ) ) ;
#415 = B_SPLINE_CURVE_WITH_KNOTS ( 'NONE', 3,
 ( #564, #475, #106, #147, #466, #293, #558, #248, #150, #59, #49, #246, #423, #3, #191, #378, #569, #472, #561, #153, #13, #203, #509, #100, #288, #55, #429, #65, #156, #15, #522, #266, #120, #209, #400, #158, #347, #526, #573, #212, #585, #356, #166, #397, #307, #536, #116, #309, #441, #533, #582, #124, #482, #479, #485, #112, #163, #302, #63, #254, #352, #488, #436, #73, #18, #262 ),
 .UNSPECIFIED., .T., .F.,
 ( 4, 2, 2, 2, 2, 2, 2, 2, 2, 2, 2, 2, 2, 2, 2, 2, 2, 2, 2, 2, 2, 2, 2, 2, 2, 2, 2, 2, 2, 2, 2, 2, 4 ),
 ( 0.000000000000000000, 0.0006715018029073986823, 0.001343003605814797365, 0.002014505408722196047, 0.002686007211629594729, 0.003357509014536992978, 0.004029010817444392094, 0.004700512620351791210, 0.005372014423259189458, 0.006043516226166588574, 0.006715018029073985956, 0.007386519831981387674, 0.008058021634888787657, 0.008729523437796189375, 0.009401025240703591093, 0.01007252704361099108, 0.01074402884651839279, 0.01141553064942579278, 0.01208703245233319623, 0.01275853425524059621, 0.01343003605814799620, 0.01410153786105539965, 0.01477303966396279963, 0.01544454146687019962, 0.01611604326977759960, 0.01678754507268500132, 0.01745904687559240304, 0.01813054867849980475, 0.01880205048140720647, 0.01947355228431460819, 0.02014505408722200644, 0.02081655589012940816, 0.02148805769303680988 ),
 .UNSPECIFIED. ) ;
#416 = ORIENTED_EDGE ( 'NONE', *, *, #137, .F. ) ;
#417 = DIRECTION ( 'NONE',  ( -1.000000000000000000, 0.000000000000000000, 0.000000000000000000 ) ) ;
#418 = EDGE_CURVE ( 'NONE', #173, #173, #516, .T. ) ;
#419 = CARTESIAN_POINT ( 'NONE',  ( 12.51401886673599684, 7.665109673983304894, 3.052401367475420901 ) ) ;
#420 = DIRECTION ( 'NONE',  ( -1.000000000000000000, -7.709882115452475208E-16, -0.000000000000000000 ) ) ;
#421 = CARTESIAN_POINT ( 'NONE',  ( 13.55760724956762431, 7.938642687869720049, 2.250922407006588077 ) ) ;
#422 = EDGE_LOOP ( 'NONE', ( #446, #160, #580, #362 ) ) ;
#423 = CARTESIAN_POINT ( 'NONE',  ( 7.949110236998357060, -8.111979613272515266, -1.516909362264606154 ) ) ;
#424 = DIRECTION ( 'NONE',  ( 1.275531967630004999E-16, 1.000000000000000000, 0.000000000000000000 ) ) ;
#425 = PRODUCT_DEFINITION ( 'General', '', #54, #393 ) ;
#426 = FACE_OUTER_BOUND ( 'NONE', #31, .T. ) ;
#427 = CYLINDRICAL_SURFACE ( 'NONE', #325, 9.500000000000000000 ) ;
#428 = CONICAL_SURFACE ( 'NONE', #303, 12.00000000000000000, 0.7853981633974487231 ) ;
#429 = CARTESIAN_POINT ( 'NONE',  ( 8.919295027624229988, -7.797453036776500035, 2.698040478545335574 ) ) ;
#430 = CARTESIAN_POINT ( 'NONE',  ( 19.42479675598436728, -12.25000000000000178, 2.929883848930835200 ) ) ;
#431 = CARTESIAN_POINT ( 'NONE',  ( -2.748922864929643772, 12.25000000000000533, -1.496570076642223857 ) ) ;
#432 = CARTESIAN_POINT ( 'NONE',  ( 19.61767671717846184, -12.24999999999999822, 1.840428092940698868 ) ) ;
#433 = CARTESIAN_POINT ( 'NONE',  ( 11.45313304139304655, 7.527229663432461138, -3.377234762646751154 ) ) ;
#434 = CARTESIAN_POINT ( 'NONE',  ( -2.999999999999892530, 0.000000000000000000, 0.000000000000000000 ) ) ;
#435 = FACE_OUTER_BOUND ( 'NONE', #368, .T. ) ;
#436 = CARTESIAN_POINT ( 'NONE',  ( 11.89600955246831759, -7.566815048042171199, -3.287584383237601493 ) ) ;
#437 = CARTESIAN_POINT ( 'NONE',  ( 20.00000000000000000, -12.14399999999999835, -12.14399999999999835 ) ) ;
#438 = EDGE_LOOP ( 'NONE', ( #48 ) ) ;
#439 = CIRCLE ( 'NONE', #178, 3.400000000000000355 ) ;
#440 = EDGE_CURVE ( 'NONE', #184, #184, #337, .T. ) ;
#441 = CARTESIAN_POINT ( 'NONE',  ( 14.39966140047865473, -8.249860456082735993, 0.2297643279879337253 ) ) ;
#442 = DIRECTION ( 'NONE',  ( 1.000000000000000000, 0.000000000000000000, 0.000000000000000000 ) ) ;
#443 = EDGE_LOOP ( 'NONE', ( #129 ) ) ;
#444 = B_SPLINE_CURVE_WITH_KNOTS ( 'NONE', 3,
 ( #138, #114, #196, #60, #247, #565, #432, #430, #515, #380 ),
 .UNSPECIFIED., .F., .F.,
 ( 4, 2, 2, 2, 4 ),
 ( 0.000000000000000000, 0.004406884973313185926, 0.005508606216641482624, 0.006610327459969778455, 0.008813769946626371851 ),
 .UNSPECIFIED. ) ;
#445 = FACE_OUTER_BOUND ( 'NONE', #598, .T. ) ;
#446 = ORIENTED_EDGE ( 'NONE', *, *, #381, .T. ) ;
#447 = SURFACE_STYLE_USAGE ( .BOTH. , #76 ) ;
#448 = CARTESIAN_POINT ( 'NONE',  ( -2.000000000000001776, 0.000000000000000000, 0.000000000000000000 ) ) ;
#449 = DIRECTION ( 'NONE',  ( 1.541976423090494844E-15, -1.000000000000000000, 0.000000000000000000 ) ) ;
#450 = CARTESIAN_POINT ( 'NONE',  ( 9.890662214007489794, 7.595580208603484706, 3.221516671314212488 ) ) ;
#451 = VERTEX_POINT ( 'NONE', #520 ) ;
#452 = CARTESIAN_POINT ( 'NONE',  ( 14.22498208896205973, 8.179037837046470472, -1.099967339764924779 ) ) ;
#453 = AXIS2_PLACEMENT_3D ( 'NONE', #227, #281, #457 ) ;
#454 = DIRECTION ( 'NONE',  ( 1.000000000000000000, 0.000000000000000000, 0.000000000000000000 ) ) ;
#455 = CARTESIAN_POINT ( 'NONE',  ( 7.599999999999998757, 12.25000000000000000, 0.000000000000000000 ) ) ;
#456 = CARTESIAN_POINT ( 'NONE',  ( 8.052417648166834141, 8.073262603324526054, 1.708890732313699701 ) ) ;
#457 = DIRECTION ( 'NONE',  ( 7.205774438672890158E-15, 0.000000000000000000, 1.000000000000000000 ) ) ;
#458 = ADVANCED_FACE ( 'NONE', ( #334, #426 ), #341, .F. ) ;
#459 = CARTESIAN_POINT ( 'NONE',  ( 76.99999999999997158, -5.254296932000069198, 0.000000000000000000 ) ) ;
#460 = CIRCLE ( 'NONE', #199, 11.99999999999998224 ) ;
#461 = CARTESIAN_POINT ( 'NONE',  ( 8.441952515323652761, 7.938785943698895231, -2.250416115291134833 ) ) ;
#462 = EDGE_LOOP ( 'NONE', ( #402, #498, #322, #349 ) ) ;
#463 = FACE_BOUND ( 'NONE', #175, .T. ) ;
#464 = CARTESIAN_POINT ( 'NONE',  ( 8.923538323270665984, 7.796310582158437974, -2.701334558130715990 ) ) ;
#465 = ORIENTED_EDGE ( 'NONE', *, *, #539, .F. ) ;
#466 = CARTESIAN_POINT ( 'NONE',  ( 9.895155223924348320, -7.594891337376788343, -3.223149627020506003 ) ) ;
#467 = ADVANCED_FACE ( 'NONE', ( #298, #343, #200, #145 ), #108, .F. ) ;
#468 = DIRECTION ( 'NONE',  ( 0.000000000000000000, 0.000000000000000000, 1.000000000000000000 ) ) ;
#469 = AXIS2_PLACEMENT_3D ( 'NONE', #66, #531, #486 ) ;
#470 = CARTESIAN_POINT ( 'NONE',  ( -2.000000000280991230, 12.24999999998762945, -4.351723795577713716 ) ) ;
#471 = CARTESIAN_POINT ( 'NONE',  ( 20.00000000000001776, 2.507721281709177486E-30, 0.000000000000000000 ) ) ;
#472 = CARTESIAN_POINT ( 'NONE',  ( 7.599669056387852173, -8.250136388756169836, 0.2195693711517491820 ) ) ;
#473 = DIRECTION ( 'NONE',  ( -1.000000000000000000, 0.000000000000000000, 0.000000000000000000 ) ) ;
#474 = AXIS2_PLACEMENT_3D ( 'NONE', #556, #186, #331 ) ;
#475 = CARTESIAN_POINT ( 'NONE',  ( 10.77271476545114126, -7.516814485095942189, -3.400000000186575111 ) ) ;
#476 = CYLINDRICAL_SURFACE ( 'NONE', #19, 3.400000000000000355 ) ;
#477 = PRODUCT_RELATED_PRODUCT_CATEGORY ( 'part', '', ( #172 ) ) ;
#478 = CARTESIAN_POINT ( 'NONE',  ( -2.750265294139280670, 12.24999999999999822, 0.3630889051216620311 ) ) ;
#479 = CARTESIAN_POINT ( 'NONE',  ( 14.05227943519371436, -8.112494081128080126, -1.514604856833787538 ) ) ;
#480 = FACE_OUTER_BOUND ( 'NONE', #584, .T. ) ;
#481 = CIRCLE ( 'NONE', #453, 13.00000000000000178 ) ;
#482 = CARTESIAN_POINT ( 'NONE',  ( 14.22498209410849235, -8.179037839083028061, -1.099967324755881659 ) ) ;
#483 = EDGE_CURVE ( 'NONE', #21, #399, #57, .T. ) ;
#484 = ORIENTED_EDGE ( 'NONE', *, *, #525, .F. ) ;
#485 = CARTESIAN_POINT ( 'NONE',  ( 13.94733973660780713, -8.073173153340761132, -1.709317083474350518 ) ) ;
#486 = DIRECTION ( 'NONE',  ( 0.000000000000000000, 0.000000000000000000, 1.000000000000000000 ) ) ;
#487 = EDGE_LOOP ( 'NONE', ( #2 ) ) ;
#488 = CARTESIAN_POINT ( 'NONE',  ( 12.10823381692889456, -7.595416721366443191, -3.221900859410326667 ) ) ;
#489 = DIRECTION ( 'NONE',  ( 1.000000000000000000, 1.320613203575840211E-15, 0.000000000000000000 ) ) ;
#490 = ORIENTED_EDGE ( 'NONE', *, *, #72, .F. ) ;
#491 = SURFACE_STYLE_FILL_AREA ( #215 ) ;
#492 = DIRECTION ( 'NONE',  ( 0.000000000000000000, 0.000000000000000000, 1.000000000000000000 ) ) ;
#493 = ORIENTED_EDGE ( 'NONE', *, *, #181, .F. ) ;
#494 = CARTESIAN_POINT ( 'NONE',  ( -3.000000000000000000, 0.000000000000000000, 10.00000000000000000 ) ) ;
#495 = CARTESIAN_POINT ( 'NONE',  ( 7.622161173176984938, 8.240794224581774685, 0.4474229410982785149 ) ) ;
#496 = EDGE_LOOP ( 'NONE', ( #416 ) ) ;
#497 = CARTESIAN_POINT ( 'NONE',  ( 14.22163828379006922, 8.177727769718687867, 1.109060630954323168 ) ) ;
#498 = ORIENTED_EDGE ( 'NONE', *, *, #72, .T. ) ;
#499 = CARTESIAN_POINT ( 'NONE',  ( 20.00000000000001776, -11.99999999999998224, 0.000000000000000000 ) ) ;
#500 = CARTESIAN_POINT ( 'NONE',  ( 10.99999998323341899, 7.516814484722465828, -3.399999999766336600 ) ) ;
#501 = EDGE_CURVE ( 'NONE', #134, #134, #524, .T. ) ;
#502 = EDGE_LOOP ( 'NONE', ( #554 ) ) ;
#503 = CARTESIAN_POINT ( 'NONE',  ( 13.24754299684358116, 7.844242627895130937, 2.560577474466374071 ) ) ;
#504 = EDGE_LOOP ( 'NONE', ( #207 ) ) ;
#505 = DIRECTION ( 'NONE',  ( -1.000000000000000000, 0.000000000000000000, 0.000000000000000000 ) ) ;
#506 = CARTESIAN_POINT ( 'NONE',  ( 10.77114691960610138, 7.516860488879569147, 3.399898293052192155 ) ) ;
#507 = CARTESIAN_POINT ( 'NONE',  ( 2.999999999999891642, 0.000000000000000000, 0.000000000000000000 ) ) ;
#508 = VECTOR ( 'NONE', #77, 1000.000000000000000 ) ;
#509 = CARTESIAN_POINT ( 'NONE',  ( 8.052417640576329916, -8.073262606106942130, 1.708890719226314525 ) ) ;
#510 = FACE_BOUND ( 'NONE', #496, .T. ) ;
#511 = CARTESIAN_POINT ( 'NONE',  ( -2.424796756052346680, 12.25000000000000178, 2.929883848623182185 ) ) ;
#512 = FACE_OUTER_BOUND ( 'NONE', #232, .T. ) ;
#513 = CIRCLE ( 'NONE', #257, 13.00000000000000178 ) ;
#514 = DIRECTION ( 'NONE',  ( -1.000000000000000000, 0.000000000000000000, 0.000000000000000000 ) ) ;
#515 = CARTESIAN_POINT ( 'NONE',  ( 19.23649823955727456, -12.25000000000000000, 3.645227415072928689 ) ) ;
#516 = CIRCLE ( 'NONE', #261, 9.500000000000000000 ) ;
#517 = DIRECTION ( 'NONE',  ( 1.275531967630004999E-16, 1.000000000000000000, 0.000000000000000000 ) ) ;
#518 = DIRECTION ( 'NONE',  ( 1.000000000000000000, -0.000000000000000000, -0.000000000000000000 ) ) ;
#519 = ADVANCED_FACE ( 'NONE', ( #332 ), #567, .T. ) ;
#520 = CARTESIAN_POINT ( 'NONE',  ( -2.000000000213927986, -12.25000000000000000, -4.351723795552079999 ) ) ;
#521 = CARTESIAN_POINT ( 'NONE',  ( -2.667044361758223125, -12.25000000000000178, -1.474536526937191283 ) ) ;
#522 = CARTESIAN_POINT ( 'NONE',  ( 10.10279652769065883, -7.566959450419802558, 3.287253124666453363 ) ) ;
#523 = FACE_OUTER_BOUND ( 'NONE', #504, .T. ) ;
#524 = CIRCLE ( 'NONE', #32, 9.500000000000000000 ) ;
#525 = EDGE_CURVE ( 'NONE', #316, #316, #415, .T. ) ;
#526 = CARTESIAN_POINT ( 'NONE',  ( 12.51401885336874287, -7.665109671325958551, 3.052401374122327482 ) ) ;
#527 = DIRECTION ( 'NONE',  ( 1.000000000000000000, -0.000000000000000000, -0.000000000000000000 ) ) ;
#528 = AXIS2_PLACEMENT_3D ( 'NONE', #592, #505, #132 ) ;
#529 = ORIENTED_EDGE ( 'NONE', *, *, #595, .F. ) ;
#530 = CLOSED_SHELL ( 'NONE', ( #189, #467, #35, #587, #338, #144, #300, #25, #519, #458, #373, #320, #363, #312, #354, #548, #155 ) ) ;
#531 = DIRECTION ( 'NONE',  ( -1.000000000000000000, 0.000000000000000000, 0.000000000000000000 ) ) ;
#532 = VERTEX_POINT ( 'NONE', #68 ) ;
#533 = CARTESIAN_POINT ( 'NONE',  ( 14.40033105007377756, -8.250136432631220984, -0.2196315874922659117 ) ) ;
#534 = CARTESIAN_POINT ( 'NONE',  ( 19.74892286499930094, 12.25000000000000178, 1.496570075823184576 ) ) ;
#535 = ORIENTED_EDGE ( 'NONE', *, *, #53, .T. ) ;
#536 = CARTESIAN_POINT ( 'NONE',  ( 14.22163827885139220, -8.177727767765306410, 1.109060645274544843 ) ) ;
#537 = CARTESIAN_POINT ( 'NONE',  ( -2.918323368000000251, 12.25000000000000000, -4.351723796000000810 ) ) ;
#538 = ORIENTED_EDGE ( 'NONE', *, *, #276, .F. ) ;
#539 = EDGE_CURVE ( 'NONE', #532, #217, #22, .T. ) ;
#540 = DIRECTION ( 'NONE',  ( -1.000000000000000000, 0.000000000000000000, 0.000000000000000000 ) ) ;
#541 = EDGE_LOOP ( 'NONE', ( #355 ) ) ;
#542 = CARTESIAN_POINT ( 'NONE',  ( 76.50000000000000000, 0.000000000000000000, 9.500000000000000000 ) ) ;
#543 = MANIFOLD_SOLID_BREP ( 'Imported1', #530 ) ;
#544 = CARTESIAN_POINT ( 'NONE',  ( 9.285739242273562510, 7.707764307757090982, 2.944497522576326354 ) ) ;
#545 = EDGE_LOOP ( 'NONE', ( #351 ) ) ;
#546 = AXIS2_PLACEMENT_3D ( 'NONE', #244, #56, #50 ) ;
#547 = VERTEX_POINT ( 'NONE', #499 ) ;
#548 = ADVANCED_FACE ( 'NONE', ( #205, #390 ), #274, .T. ) ;
#549 = CARTESIAN_POINT ( 'NONE',  ( 12.51593831590158246, 7.665522940784056161, -3.051353529701024581 ) ) ;
#550 = EDGE_LOOP ( 'NONE', ( #82, #75, #412, #575 ) ) ;
#551 = B_SPLINE_CURVE_WITH_KNOTS ( 'NONE', 3,
 ( #387, #570, #154, #344, #4, #521, #299, #571, #157, #346 ),
 .UNSPECIFIED., .F., .F.,
 ( 4, 2, 2, 2, 4 ),
 ( 0.000000000000000000, 0.004406884972984286691, 0.005508606216230358364, 0.006610327459476430037, 0.008813769945968573383 ),
 .UNSPECIFIED. ) ;
#552 = CARTESIAN_POINT ( 'NONE',  ( 20.00000000000000355, 0.000000000000000000, 9.500000000000000000 ) ) ;
#553 = CARTESIAN_POINT ( 'NONE',  ( 9.290942839322465119, 7.706597302118054493, -2.947545608029452868 ) ) ;
#554 = ORIENTED_EDGE ( 'NONE', *, *, #201, .F. ) ;
#555 = CARTESIAN_POINT ( 'NONE',  ( 7.949110230244325948, 8.111979615820960277, -1.516909348684920777 ) ) ;
#556 = CARTESIAN_POINT ( 'NONE',  ( -2.918323368000000251, -12.25000000000000000, 4.351723796000000810 ) ) ;
#557 = AXIS2_PLACEMENT_3D ( 'NONE', #51, #517, #514 ) ;
#558 = CARTESIAN_POINT ( 'NONE',  ( 9.290942852398359264, -7.706597299203635565, -2.947545615614425074 ) ) ;
#559 = EDGE_LOOP ( 'NONE', ( #318 ) ) ;
#560 = CONICAL_SURFACE ( 'NONE', #528, 8.250000000000000000, 1.029744258801865930 ) ;
#561 = CARTESIAN_POINT ( 'NONE',  ( 7.622161171160605875, -8.240794225412665597, 0.4474229258859600544 ) ) ;
#562 = DIRECTION ( 'NONE',  ( 1.000000000000000000, 0.000000000000000000, 0.000000000000000000 ) ) ;
#563 = VECTOR ( 'NONE', #473, 1000.000000000000000 ) ;
#564 = CARTESIAN_POINT ( 'NONE',  ( 10.99999999860528987, -7.516814485053768813, -3.400000000279808532 ) ) ;
#565 = CARTESIAN_POINT ( 'NONE',  ( 19.66704436170667236, -12.25000000000000178, 1.474536527374272099 ) ) ;
#566 = CIRCLE ( 'NONE', #105, 3.400000000000000355 ) ;
#567 = CYLINDRICAL_SURFACE ( 'NONE', #113, 13.00000000000000178 ) ;
#568 = DIRECTION ( 'NONE',  ( 0.000000000000000000, -1.000000000000000000, 0.000000000000000000 ) ) ;
#569 = CARTESIAN_POINT ( 'NONE',  ( 7.600338492439377980, -8.249860500213429759, -0.2297016953461593625 ) ) ;
#570 = CARTESIAN_POINT ( 'NONE',  ( -2.472586982743378403, -12.25000000068329697, 2.939954331977361335 ) ) ;
#571 = CARTESIAN_POINT ( 'NONE',  ( -2.424796756105833673, -12.25000000000000178, -2.929883848399426061 ) ) ;
#572 = EDGE_CURVE ( 'NONE', #326, #326, #221, .T. ) ;
#573 = CARTESIAN_POINT ( 'NONE',  ( 12.70821087215878364, -7.706407769196813362, 2.948040379436577929 ) ) ;
#574 = CYLINDRICAL_SURFACE ( 'NONE', #250, 10.00000000000000000 ) ;
#575 = ORIENTED_EDGE ( 'NONE', *, *, #252, .T. ) ;
#576 = PRESENTATION_STYLE_ASSIGNMENT (( #447 ) ) ;
#577 = B_SPLINE_CURVE_WITH_KNOTS ( 'NONE', 3,
 ( #398, #361, #534, #590, #170, #357, #20, #30, #167, #219 ),
 .UNSPECIFIED., .F., .F.,
 ( 4, 2, 2, 2, 4 ),
 ( 0.000000000000000000, 0.004406884972177960332, 0.005508606215222450198, 0.006610327458266940931, 0.008813769944355918928 ),
 .UNSPECIFIED. ) ;
#578 = FACE_OUTER_BOUND ( 'NONE', #24, .T. ) ;
#579 = AXIS2_PLACEMENT_3D ( 'NONE', #83, #403, #33 ) ;
#580 = ORIENTED_EDGE ( 'NONE', *, *, #161, .T. ) ;
#581 = CONICAL_SURFACE ( 'NONE', #8, 12.00000000000000000, 0.7853981633974482790 ) ;
#582 = CARTESIAN_POINT ( 'NONE',  ( 14.37782633944329547, -8.240788998962091938, -0.4475478151472452315 ) ) ;
#583 = FACE_BOUND ( 'NONE', #171, .T. ) ;
#584 = EDGE_LOOP ( 'NONE', ( #333 ) ) ;
#585 = CARTESIAN_POINT ( 'NONE',  ( 13.24754298564560351, -7.844242624673158026, 2.560577484297132056 ) ) ;
#586 = DIRECTION ( 'NONE',  ( -1.000000000000000000, 0.000000000000000000, 0.000000000000000000 ) ) ;
#587 = ADVANCED_FACE ( 'NONE', ( #127, #463 ), #560, .F. ) ;
#588 = ORIENTED_EDGE ( 'NONE', *, *, #418, .F. ) ;
#589 = DIRECTION ( 'NONE',  ( -1.000000000000000000, -7.709882115452475208E-16, -0.000000000000000000 ) ) ;
#590 = CARTESIAN_POINT ( 'NONE',  ( 19.75026529412238574, 12.25000000000000178, -0.3630889056277302740 ) ) ;
#591 = VERTEX_POINT ( 'NONE', #42 ) ;
#592 = CARTESIAN_POINT ( 'NONE',  ( 4.051506083000000480, 0.000000000000000000, 0.000000000000000000 ) ) ;
#593 = CARTESIAN_POINT ( 'NONE',  ( 13.70199208850108441, 7.986868878788889958, -2.075527684361335723 ) ) ;
#594 = ORIENTED_EDGE ( 'NONE', *, *, #137, .T. ) ;
#595 = EDGE_CURVE ( 'NONE', #91, #256, #379, .T. ) ;
#596 = CARTESIAN_POINT ( 'NONE',  ( 18.99999999999990763, 0.000000000000000000, 0.000000000000000000 ) ) ;
#597 = CARTESIAN_POINT ( 'NONE',  ( 13.69817818844547830, 7.985561295088162481, 2.080690477970161822 ) ) ;
#598 = EDGE_LOOP ( 'NONE', ( #490, #260, #140, #36 ) ) ;
#599 = CIRCLE ( 'NONE', #340, 5.254296932000069198 ) ;
#600 = CARTESIAN_POINT ( 'NONE',  ( 7.599999999999998757, -12.25000000000000000, 0.000000000000000000 ) ) ;
#601 = CARTESIAN_POINT ( 'NONE',  ( 12.10823380278021233, 7.595416719291494978, -3.221900864274492626 ) ) ;
#602 = ORIENTED_EDGE ( 'NONE', *, *, #501, .T. ) ;
#603 = CARTESIAN_POINT ( 'NONE',  ( -2.999999999999892530, 0.000000000000000000, -12.00000000000010836 ) ) ;
#604 = CARTESIAN_POINT ( 'NONE',  ( 14.37727300500093541, 8.240559858424038708, 0.4521315290695628875 ) ) ;
#605 = FACE_BOUND ( 'NONE', #438, .T. ) ;
ENDSEC;
END-ISO-10303-21;
